<?xml version="1.0" encoding="utf-8"?>
<!-- Generator: Adobe Illustrator 26.3.1, SVG Export Plug-In . SVG Version: 6.00 Build 0)  -->
<svg version="1.1" id="Warstwa_1" xmlns="http://www.w3.org/2000/svg" xmlns:xlink="http://www.w3.org/1999/xlink" x="0px" y="0px"
	 viewBox="0 0 430 430" style="enable-background:new 0 0 430 430;" xml:space="preserve">
<style type="text/css">
	.Styl_x0020_grafiki_x0020_9{opacity:0.5;fill:#ffc738;}
	.Styl_x0020_grafiki_x0020_467{opacity:0.5;fill:#3a3347;}
	.Styl_x0020_grafiki_x0020_468{fill:#3a3347;}
	.Styl_x0020_grafiki_x0020_469{fill:#ffc738;}
	.Styl_x0020_grafiki_x0020_470{opacity:0.5;fill:#ebe6ef;}
	.Styl_x0020_grafiki_x0020_471{fill:#ebe6ef;}
	.Styl_x0020_grafiki_x0020_474{fill:#4bb3fd;}
	.st0{fill:#ffc738;}
	.st1{fill:#121331;}
	.st2{fill:#B26836;}
	.st3{fill:#2CA58D;}
	.st4{opacity:0.5;fill:#2CA58D;}
	.st5{fill:#3a3347;}
	.st6{fill:#ebe6ef;}
	.st7{fill:#F24C00;}
	.st8{opacity:0.5;fill:#F24C00;}
	.st9{fill:#4bb3fd;}
	.st10{opacity:0.5;fill:#ebe6ef;}
	.st11{opacity:0.5;fill:#4bb3fd;}
	.st12{fill:none;stroke:#F24C00;stroke-width:7;stroke-linecap:round;stroke-linejoin:round;stroke-miterlimit:10;}
	.st13{opacity:0.5;fill:#B26836;}
	.st14{fill:#FFFFFF;}
	.st15{fill:#FCFCFC;}
	.st16{fill:#646E78;}
	.st17{fill:#F9C9C0;}
	.st18{opacity:0.5;fill:#F9C9C0;}
	.st19{fill:none;stroke:#121331;stroke-width:7;stroke-linecap:round;stroke-linejoin:round;stroke-miterlimit:10;}
	.st20{fill:#F28BA8;}
	.st21{opacity:0.5;fill:#F28BA8;}
	.st22{opacity:0.5;fill:#3a3347;}
	.st23{opacity:0.5;fill:#646E78;}
	.st24{opacity:0.5;}
	.st25{fill:none;stroke:#ffc738;stroke-width:7;stroke-linecap:round;stroke-linejoin:round;stroke-miterlimit:10;}
	.st26{opacity:0.1;fill:#3a3347;}
	.st27{fill:none;stroke:#08A88A;stroke-width:12;stroke-linecap:round;stroke-linejoin:round;stroke-miterlimit:10;}
	.st28{fill:#92140C;}
	.st29{opacity:0.5;fill:#ffc738;}
	.st30{opacity:0.5;fill:#92140C;}
	.st31{fill:none;stroke:#3a3347;stroke-width:7;stroke-linecap:round;stroke-linejoin:round;stroke-miterlimit:10;}
	.st32{fill:none;stroke:#4bb3fd;stroke-width:7;stroke-linecap:round;stroke-linejoin:round;stroke-miterlimit:10;}
	.st33{fill:#08A88A;}
	.st34{opacity:0.75;fill:#3a3347;}
	.st35{fill:none;}
	.st36{fill:#FFFFFF;stroke:#121331;stroke-width:12;stroke-linecap:round;stroke-linejoin:round;stroke-miterlimit:10;}
	.st37{fill:none;stroke:#ebe6ef;stroke-width:7;stroke-linecap:round;stroke-linejoin:round;stroke-miterlimit:10;}
	.st38{fill:#ebe6ef;stroke:#ebe6ef;stroke-width:7;stroke-linecap:round;stroke-miterlimit:10;}
	.st39{fill:none;stroke:#121331;stroke-width:12;stroke-linecap:round;stroke-linejoin:round;stroke-miterlimit:10;}
</style>
<g>
	<path class="st1" d="M112,143.74c-1.93,0-3.5-1.57-3.5-3.5V47.62c0-1.93,1.57-3.5,3.5-3.5s3.5,1.57,3.5,3.5v92.62
		C115.5,142.18,113.94,143.74,112,143.74z"/>
	<path class="st1" d="M121.17,106.67h-18.33c-1.93,0-3.5-1.57-3.5-3.5s1.57-3.5,3.5-3.5h18.33c1.93,0,3.5,1.57,3.5,3.5
		S123.1,106.67,121.17,106.67z"/>
	<polygon class="Styl_x0020_grafiki_x0020_471" points="139.23,161.24 131.25,161.24 131.25,140.24 92.76,140.24 92.76,161.24 
		84.78,161.24 89.27,188.6 101.5,188.6 91.97,383.38 132.04,383.38 122.51,188.6 134.73,188.6 	"/>
	<polygon class="Styl_x0020_grafiki_x0020_470" points="99.27,188.6 94.78,161.24 102.76,161.24 102.76,140.24 92.76,140.24 
		92.76,161.24 84.78,161.24 89.27,188.6 101.5,188.6 91.97,383.38 101.97,383.38 111.5,188.6 	"/>
	<path class="st1" d="M132.04,386.88H91.97c-0.96,0-1.87-0.39-2.53-1.09c-0.66-0.69-1.01-1.63-0.96-2.58l9.35-191.11h-8.55
		c-1.71,0-3.18-1.24-3.45-2.93l-4.49-27.35c-0.17-1.01,0.12-2.05,0.79-2.83c0.67-0.78,1.64-1.23,2.67-1.23h4.48v-17.5
		c0-1.93,1.57-3.5,3.5-3.5h38.49c1.93,0,3.5,1.57,3.5,3.5v17.5h4.48c1.03,0,2,0.45,2.67,1.23c0.67,0.78,0.95,1.82,0.79,2.83
		l-4.49,27.35c-0.28,1.69-1.74,2.93-3.45,2.93h-8.55l9.35,191.11c0.05,0.96-0.3,1.89-0.96,2.58
		C133.91,386.49,132.99,386.88,132.04,386.88z M95.64,379.88h32.72l-9.35-191.11c-0.05-0.96,0.3-1.89,0.96-2.58
		c0.66-0.69,1.58-1.09,2.53-1.09h9.25l3.34-20.35h-3.86c-1.93,0-3.5-1.57-3.5-3.5v-17.5H96.26v17.5c0,1.93-1.57,3.5-3.5,3.5H88.9
		l3.34,20.35h9.25c0.96,0,1.87,0.39,2.53,1.09c0.66,0.69,1.01,1.63,0.96,2.58L95.64,379.88z"/>
	<path class="st1" d="M131.25,164.74H92.76c-1.93,0-3.5-1.57-3.5-3.5s1.57-3.5,3.5-3.5h38.49c1.93,0,3.5,1.57,3.5,3.5
		S133.18,164.74,131.25,164.74z"/>
	<path class="st1" d="M122.51,192.1H101.5c-1.93,0-3.5-1.57-3.5-3.5s1.57-3.5,3.5-3.5h21.01c1.93,0,3.5,1.57,3.5,3.5
		S124.44,192.1,122.51,192.1z"/>
</g>
<rect x="239.3" y="119.68" class="Styl_x0020_grafiki_x0020_474" width="104.63" height="199.41"/>
<path class="st1" d="M343.93,161.94h-16.91c-1.93,0-3.5-1.57-3.5-3.5s1.57-3.5,3.5-3.5h16.91c1.93,0,3.5,1.57,3.5,3.5
	S345.87,161.94,343.93,161.94z"/>
<path class="st1" d="M343.93,192.41h-16.91c-1.93,0-3.5-1.57-3.5-3.5s1.57-3.5,3.5-3.5h16.91c1.93,0,3.5,1.57,3.5,3.5
	S345.87,192.41,343.93,192.41z"/>
<path class="st1" d="M343.93,222.88h-16.91c-1.93,0-3.5-1.57-3.5-3.5s1.57-3.5,3.5-3.5h16.91c1.93,0,3.5,1.57,3.5,3.5
	S345.87,222.88,343.93,222.88z"/>
<path class="st1" d="M343.93,253.36h-16.91c-1.93,0-3.5-1.57-3.5-3.5s1.57-3.5,3.5-3.5h16.91c1.93,0,3.5,1.57,3.5,3.5
	S345.87,253.36,343.93,253.36z"/>
<path class="st1" d="M256.21,161.76H239.3c-1.93,0-3.5-1.57-3.5-3.5s1.57-3.5,3.5-3.5h16.91c1.93,0,3.5,1.57,3.5,3.5
	S258.14,161.76,256.21,161.76z"/>
<path class="st1" d="M256.21,192.23H239.3c-1.93,0-3.5-1.57-3.5-3.5s1.57-3.5,3.5-3.5h16.91c1.93,0,3.5,1.57,3.5,3.5
	S258.14,192.23,256.21,192.23z"/>
<path class="st1" d="M256.21,222.7H239.3c-1.93,0-3.5-1.57-3.5-3.5s1.57-3.5,3.5-3.5h16.91c1.93,0,3.5,1.57,3.5,3.5
	S258.14,222.7,256.21,222.7z"/>
<rect x="276.93" y="119.68" class="st9" width="29.38" height="199.41"/>
<path class="st1" d="M343.93,322.59H239.3c-1.93,0-3.5-1.57-3.5-3.5V119.68c0-1.93,1.57-3.5,3.5-3.5h104.63c1.93,0,3.5,1.57,3.5,3.5
	v199.41C347.43,321.02,345.87,322.59,343.93,322.59z M242.8,315.59h97.63V123.18H242.8V315.59z"/>
<path class="st1" d="M276.93,322.59c-1.93,0-3.5-1.57-3.5-3.5V119.68c0-1.93,1.57-3.5,3.5-3.5s3.5,1.57,3.5,3.5v199.41
	C280.43,321.02,278.86,322.59,276.93,322.59z"/>
<path class="st1" d="M306.31,322.59c-1.93,0-3.5-1.57-3.5-3.5V119.68c0-1.93,1.57-3.5,3.5-3.5s3.5,1.57,3.5,3.5v199.41
	C309.81,321.02,308.24,322.59,306.31,322.59z"/>
<g>
	<path class="st6" d="M256.21,253.18H239.3c-1.93,0-3.5-1.57-3.5-3.5s1.57-3.5,3.5-3.5h16.91c1.93,0,3.5,1.57,3.5,3.5
		S258.14,253.18,256.21,253.18z"/>
</g>
<g>
	<path class="st6" d="M256.21,283.65H239.3c-1.93,0-3.5-1.57-3.5-3.5s1.57-3.5,3.5-3.5h16.91c1.93,0,3.5,1.57,3.5,3.5
		S258.14,283.65,256.21,283.65z"/>
</g>
<polyline class="Styl_x0020_grafiki_x0020_469" points="296.65,280.51 369.29,280.51 369.29,383.38 60.71,383.38 60.71,280.51 
	133.35,280.51 "/>
<rect x="60.71" y="280.51" class="Styl_x0020_grafiki_x0020_9" width="81.51" height="102.87"/>
<rect x="287.78" y="280.51" class="Styl_x0020_grafiki_x0020_9" width="81.51" height="102.87"/>
<rect x="142.22" y="315.64" class="Styl_x0020_grafiki_x0020_469" width="145.56" height="67.74"/>
<rect x="142.22" y="315.64" class="st0" width="145.56" height="67.74"/>
<polyline class="Styl_x0020_grafiki_x0020_469" points="287.78,297.96 287.78,319.09 142.22,319.09 142.22,297.96 "/>
<path class="st1" d="M375.07,322.59H54.92c-1.93,0-3.5-1.57-3.5-3.5s1.57-3.5,3.5-3.5h320.15c1.93,0,3.5,1.57,3.5,3.5
	S377.01,322.59,375.07,322.59z"/>
<g>
	<path class="st1" d="M81.06,360.16c-1.93,0-3.5-1.57-3.5-3.5v-10.74c0-1.93,1.57-3.5,3.5-3.5s3.5,1.57,3.5,3.5v10.74
		C84.56,358.59,82.99,360.16,81.06,360.16z"/>
	<path class="st1" d="M101.25,360.16c-1.93,0-3.5-1.57-3.5-3.5v-10.74c0-1.93,1.57-3.5,3.5-3.5s3.5,1.57,3.5,3.5v10.74
		C104.75,358.59,103.18,360.16,101.25,360.16z"/>
	<path class="st1" d="M121.44,360.16c-1.93,0-3.5-1.57-3.5-3.5v-10.74c0-1.93,1.57-3.5,3.5-3.5s3.5,1.57,3.5,3.5v10.74
		C124.94,358.59,123.37,360.16,121.44,360.16z"/>
	<path class="st1" d="M308.66,360.16c-1.93,0-3.5-1.57-3.5-3.5v-10.74c0-1.93,1.57-3.5,3.5-3.5s3.5,1.57,3.5,3.5v10.74
		C312.16,358.59,310.6,360.16,308.66,360.16z"/>
	<path class="st1" d="M328.85,360.16c-1.93,0-3.5-1.57-3.5-3.5v-10.74c0-1.93,1.57-3.5,3.5-3.5s3.5,1.57,3.5,3.5v10.74
		C332.35,358.59,330.78,360.16,328.85,360.16z"/>
	<path class="st1" d="M349.04,360.16c-1.93,0-3.5-1.57-3.5-3.5v-10.74c0-1.93,1.57-3.5,3.5-3.5s3.5,1.57,3.5,3.5v10.74
		C352.54,358.59,350.97,360.16,349.04,360.16z"/>
</g>
<path class="st1" d="M287.78,322.59H142.22c-1.93,0-3.5-1.57-3.5-3.5v-21.13c0-1.93,1.57-3.5,3.5-3.5s3.5,1.57,3.5,3.5v17.63h138.56
	v-17.63c0-1.93,1.57-3.5,3.5-3.5s3.5,1.57,3.5,3.5v21.13C291.28,321.02,289.71,322.59,287.78,322.59z"/>
<path class="st1" d="M142.22,386.88H60.71c-1.93,0-3.5-1.57-3.5-3.5V280.51c0-1.93,1.57-3.5,3.5-3.5h81.51c1.93,0,3.5,1.57,3.5,3.5
	v102.87C145.72,385.31,144.15,386.88,142.22,386.88z M64.21,379.88h74.51v-95.87H64.21V379.88z"/>
<path class="st1" d="M369.29,386.88h-81.51c-1.93,0-3.5-1.57-3.5-3.5V280.51c0-1.93,1.57-3.5,3.5-3.5h81.51c1.93,0,3.5,1.57,3.5,3.5
	v102.87C372.79,385.31,371.23,386.88,369.29,386.88z M291.28,379.88h74.51v-95.87h-74.51V379.88z"/>
<path class="st1" d="M287.78,386.88H142.22c-1.93,0-3.5-1.57-3.5-3.5s1.57-3.5,3.5-3.5h145.56c1.93,0,3.5,1.57,3.5,3.5
	S289.71,386.88,287.78,386.88z"/>
<path class="st1" d="M215,231.36c-1.93,0-3.5-1.57-3.5-3.5v-24.48c0-1.93,1.57-3.5,3.5-3.5s3.5,1.57,3.5,3.5v24.48
	C218.5,229.79,216.93,231.36,215,231.36z"/>
<polyline class="Styl_x0020_grafiki_x0020_469" points="164.35,251.7 164.35,227.86 265.65,227.86 265.65,251.7 "/>
<rect x="164.35" y="227.86" class="Styl_x0020_grafiki_x0020_9" width="101.3" height="23.85"/>
<rect x="133.35" y="251.7" class="Styl_x0020_grafiki_x0020_469" width="163.3" height="46.25"/>
<polyline class="Styl_x0020_grafiki_x0020_468" points="296.65,276.96 296.65,297.96 133.35,297.96 133.35,276.96 "/>
<path class="st1" d="M265.65,255.2h-101.3c-1.93,0-3.5-1.57-3.5-3.5v-23.85c0-1.93,1.57-3.5,3.5-3.5h101.3c1.93,0,3.5,1.57,3.5,3.5
	v23.85C269.15,253.64,267.59,255.2,265.65,255.2z M167.85,248.2h94.3v-16.85h-94.3V248.2z"/>
<path class="st1" d="M296.65,301.46h-163.3c-1.93,0-3.5-1.57-3.5-3.5V251.7c0-1.93,1.57-3.5,3.5-3.5h163.3c1.93,0,3.5,1.57,3.5,3.5
	v46.25C300.15,299.89,298.58,301.46,296.65,301.46z M136.85,294.46h156.3V255.2h-156.3V294.46z"/>
<path class="st1" d="M296.65,280.46h-163.3c-1.93,0-3.5-1.57-3.5-3.5s1.57-3.5,3.5-3.5h163.3c1.93,0,3.5,1.57,3.5,3.5
	S298.58,280.46,296.65,280.46z"/>
<path class="st1" d="M171.33,386.88c-1.93,0-3.5-1.57-3.5-3.5v-64.29c0-1.93,1.57-3.5,3.5-3.5s3.5,1.57,3.5,3.5v64.29
	C174.83,385.31,173.26,386.88,171.33,386.88z"/>
<path class="st1" d="M200.44,386.88c-1.93,0-3.5-1.57-3.5-3.5v-64.29c0-1.93,1.57-3.5,3.5-3.5s3.5,1.57,3.5,3.5v64.29
	C203.94,385.31,202.38,386.88,200.44,386.88z"/>
<path class="st1" d="M229.56,386.88c-1.93,0-3.5-1.57-3.5-3.5v-64.29c0-1.93,1.57-3.5,3.5-3.5s3.5,1.57,3.5,3.5v64.29
	C233.06,385.31,231.49,386.88,229.56,386.88z"/>
<path class="st1" d="M258.67,386.88c-1.93,0-3.5-1.57-3.5-3.5v-64.29c0-1.93,1.57-3.5,3.5-3.5s3.5,1.57,3.5,3.5v64.29
	C262.17,385.31,260.6,386.88,258.67,386.88z"/>
<g>
	<path class="Styl_x0020_grafiki_x0020_471" d="M308.84,98.98c5.08-3.76,8.26-9.17,8.26-15.18c0-11.38-11.41-20.6-25.49-20.6
		c-14.07,0-25.48,9.21-25.48,20.6c0,6.01,3.18,11.42,8.26,15.18"/>
	<path class="Styl_x0020_grafiki_x0020_470" d="M276.13,83.81c0-10,8.8-18.32,20.48-20.2c-1.62-0.26-3.29-0.4-5-0.4
		c-14.07,0-25.48,9.21-25.48,20.6c0,6.01,3.18,11.41,8.26,15.18h10C279.31,95.22,276.13,89.81,276.13,83.81z"/>
	<path class="st1" d="M308.85,102.48c-1.07,0-2.13-0.49-2.81-1.42c-1.15-1.55-0.82-3.75,0.73-4.9c4.41-3.27,6.84-7.66,6.84-12.36
		c0-9.43-9.87-17.1-21.99-17.1c-12.12,0-21.98,7.67-21.98,17.1c0,4.7,2.43,9.09,6.84,12.36c1.55,1.15,1.88,3.34,0.73,4.9
		c-1.15,1.55-3.34,1.88-4.9,0.73c-6.15-4.56-9.68-11.11-9.68-17.99c0-13.29,13-24.1,28.98-24.1c15.99,0,28.99,10.81,28.99,24.1
		c0,6.87-3.53,13.43-9.68,17.99C310.3,102.26,309.57,102.48,308.85,102.48z"/>
	<polyline class="Styl_x0020_grafiki_x0020_468" points="256.21,119.68 256.21,98.98 327.02,98.98 327.02,119.68 	"/>
	<polyline class="Styl_x0020_grafiki_x0020_467" points="266.21,119.68 266.21,98.98 256.21,98.98 256.21,119.68 	"/>
	<path class="st1" d="M327.02,123.18c-1.93,0-3.5-1.57-3.5-3.5v-17.19h-63.81v17.19c0,1.93-1.57,3.5-3.5,3.5s-3.5-1.57-3.5-3.5
		V98.98c0-1.93,1.57-3.5,3.5-3.5h70.81c1.93,0,3.5,1.57,3.5,3.5v20.69C330.52,121.61,328.96,123.18,327.02,123.18z"/>
</g>
</svg>
