<svg width="233" height="32" viewBox="0 0 233 32" fill="none" xmlns="http://www.w3.org/2000/svg">
<path fill-rule="evenodd" clip-rule="evenodd" d="M110.529 0.0811204C96.0504 0.750493 68.2495 6.9038 42.0985 15.2272C39.9897 15.8984 37.2115 16.7833 35.9248 17.1935C18.5738 22.7258 9.24226 26.2146 2.71047 29.6118C0.161311 30.9377 -0.057693 31.0984 0.00976297 31.5938C0.108282 32.3167 0.523026 32.205 5.25313 30.1822C10.1478 28.089 14.5349 26.5692 26.5668 22.7984C66.7797 10.1956 85.5621 5.57546 106.63 3.10424C110.759 2.61992 117.353 2.70427 117.353 3.2413C117.353 3.95866 113.217 6.40515 103.641 11.3522C91.8598 17.4383 84.6881 21.4755 84.0529 22.3788C82.9676 23.9224 84.1613 25.0362 86.7442 24.8902C88.2202 24.8068 88.5554 24.7437 95.3225 23.2749C114.751 19.0578 127.169 16.9175 143.997 14.8849C169.625 11.7895 185.954 10.6475 216.652 9.80351C227.683 9.50032 228.253 9.45801 230.29 8.79418C231.074 8.5383 232.012 8.28823 232.373 8.23835C233.219 8.1217 233.208 7.97247 232.346 7.86243C231.971 7.81445 231.108 7.58547 230.429 7.35352C228.755 6.7816 227.645 6.75173 218.082 7.02099C186.024 7.92354 169.155 9.07777 144.712 12.0413C131.857 13.5998 126.129 14.4467 116.768 16.1725C110.369 17.3523 93.4776 20.7871 91.1115 21.3895C89.8204 21.7183 95.4245 18.6171 105.268 13.5559C117.719 7.15359 120.198 5.41474 120.209 3.07559C120.222 0.437842 117.959 -0.262217 110.529 0.0811204Z" fill="white"/>
</svg>
