<svg xmlns="http://www.w3.org/2000/svg" viewBox="0 0 430 430">
  <defs>
    <style>
      .cls-1 {
        isolation: isolate;
      }

      .cls-2, .cls-3 {
        fill: #ffc738;
      }

      .cls-10, .cls-12, .cls-14, .cls-16, .cls-3, .cls-5 {
        mix-blend-mode: multiply;
        opacity: 0.5;
      }

      .cls-4 {
        fill: #f24c00;
      }

      .cls-11, .cls-5 {
        fill: #92140c;
      }

      .cls-6 {
        fill: #646e78;
      }

      .cls-7 {
        fill: #ebe6ef;
      }

      .cls-12, .cls-8 {
        fill: #f9c9c0;
      }

      .cls-10, .cls-9 {
        fill: #4bb3fd;
      }

      .cls-13, .cls-14 {
        fill: #b26836;
      }

      .cls-15, .cls-16 {
        fill: #f28ba8;
      }

      .cls-17 {
        fill: #3a3347;
      }

      .cls-18 {
        fill: #121331;
      }
    </style>
  </defs>
  <g class="cls-1">
    <g id="Warstwa_1" data-name="Warstwa 1">
      <g>
        <g>
          <path class="cls-2" d="M349.74,164.1v21a42.29,42.29,0,0,1-20.55,36.29h0v13.39a21.57,21.57,0,0,1-21.85,21.51h-1.72a21.72,21.72,0,0,1-20.49-13.94,21.44,21.44,0,0,1-1.36-7.56v-14h0c-.73-.47-1.45-1-2.15-1.46h0c-.7-.51-1.38-1.05-2.06-1.59s-1.32-1.14-2-1.73l-.94-.91a42.4,42.4,0,0,1-9.39-14.08q-.32-.78-.6-1.56c-.23-.63-.44-1.27-.63-1.9a42.08,42.08,0,0,1-1.87-12.46V164.4c2.34-.53,4.58-1.1,6.74-1.71l.16,0c1.39-.39,2.73-.79,4-1.21.69-.21,1.35-.43,2-.66q2-.66,3.87-1.38c36.15-13.61,42.53-37.28,42.53-37.28,23.29,12.14,26,33.07,26.24,39.81C349.79,163.31,349.74,164.1,349.74,164.1Z"/>
          <path class="cls-3" d="M329.56,221.17h0l-1.19.69-1.23.65c-.42.22-.83.43-1.25.62-1.26.59-2.56,1.12-3.88,1.6-.45.16-.89.31-1.34.45s-.78.24-1.18.36l-.24.06c-.44.12-.87.24-1.31.34s-.93.23-1.4.32l-.81.16A42,42,0,0,1,301,220.6h0a42.19,42.19,0,0,1-19.59-35.66v-25.7a128,128,0,0,1-16.82,5v20.72a42.2,42.2,0,0,0,19.6,35.66h0v14h0a21.39,21.39,0,0,0,1.36,7.55,111.93,111.93,0,0,0,20.24-3c8.67-2.19,19.15-6.35,23.77-14.09h0v-3.85Z"/>
          <path class="cls-4" d="M391.46,289.19V311a10.58,10.58,0,0,1-10.58,10.58h-15c-13.22,1-20.27,3.94-25.64,6.58s-9.07,5-15.57,5H288.49c-13,0-14.72-9.55-41.3-11.62H233.77A10.58,10.58,0,0,1,223.19,311V289.19a54.37,54.37,0,0,1,54.37-54.38h6.2a21.56,21.56,0,0,0,21.85,21.51h1.72a21.57,21.57,0,0,0,21.85-21.51h7.91A54.37,54.37,0,0,1,391.46,289.19Z"/>
          <path class="cls-5" d="M285.55,242.11a21.39,21.39,0,0,1-1.36-7.55H278c-.87,0-1.74,0-2.6.06s-1.71.1-2.55.18l-1.27.14-1.26.16c-.83.11-1.64.24-2.46.4h-.08a54.08,54.08,0,0,0-18.06,7c-.49.3-1,.6-1.44.92s-.8.53-1.19.81q-.28.18-.57.39c-.19.13-.38.26-.57.41l-.9.67c-1.12.85-2.21,1.76-3.26,2.7a1.84,1.84,0,0,0-.25.23l-.23.21-.25.22-.56.53-.52.5c-.13.12-.26.25-.37.37l-.37.38a.34.34,0,0,0-.12.12l-.12.12c-.74.77-1.46,1.55-2.15,2.36a3,3,0,0,0-.23.27l-.44.51h0l-.42.52h0a3.15,3.15,0,0,0-.24.3c-.25.32-.51.64-.76,1a2.7,2.7,0,0,0-.25.34,2.92,2.92,0,0,0-.21.28,5.92,5.92,0,0,0-.35.48,2.83,2.83,0,0,0-.2.28,3.06,3.06,0,0,0-.21.29l-.38.54-.26.38c-.11.15-.21.3-.31.46-.29.45-.58.91-.86,1.37l-.2.31-.43.74-.19.32a52.55,52.55,0,0,0-2.43,4.72c-.18.4-.35.79-.51,1.19s-.35.81-.51,1.22c-.1.26-.2.52-.29.78-.18.45-.34.9-.5,1.36l-.15.43c-.07.22-.15.45-.22.68-.19.6-.38,1.21-.55,1.83-.07.23-.14.46-.2.69-.13.48-.25,1-.37,1.45l-.24,1a.24.24,0,0,1,0,.08.77.77,0,0,0,0,.15c-.05.18-.09.38-.13.56a.8.8,0,0,1,0,.15l-.15.79c-.08.45-.16.91-.23,1.37-.05.26-.09.53-.12.8-.12.78-.21,1.56-.29,2.35l-.06.68c-.06.67-.11,1.35-.14,2,0,.18,0,.37,0,.56s0,.53,0,.8c0,.46,0,.92,0,1.39v21.73a10.53,10.53,0,0,0,2.1,6.33c.2.27.42.53.64.78s.22.24.35.36a11,11,0,0,0,1.57,1.3c.28.19.57.36.87.53s.61.31.92.44a10.67,10.67,0,0,0,4.12.83h13.41l1,.08,1,.1c-.66-4.9-1.28-10.65-1.6-16.71a124.36,124.36,0,0,1,1.18-26.92c1.64-9.66,4.72-17.26,9.17-22.58a23.61,23.61,0,0,1,5.74-5.65,35,35,0,0,1,6.92-3.92,46.3,46.3,0,0,1,13-3.4Z"/>
          <path class="cls-6" d="M349.74,164.1v-2.17c-.24-6.74-2.95-27.67-26.24-39.81,0,0-8.27,30.71-59.36,42.28l-2.7.58s-18.25-53.75,4.41-67a10,10,0,0,1,9.42.18c3.5,2.23,7,5.88,9.22,7.77,1.67,1.42,4.39.6,6,2.08,2.75,2.46,9.91-.1,14.31-1.76,36-13.62,49.36,9.69,49.74,20.2C355.22,144.73,356.64,160,349.74,164.1Z"/>
          <g>
            <path class="cls-7" d="M357.86,291.83c0-7.84-.62-14.21-6.07-14.21h-.29a5.87,5.87,0,0,0-3.55,1.43,10.54,10.54,0,0,0-10,0,5.85,5.85,0,0,0-3.55-1.43h-.28c-5.46,0-6.05,6.37-6.08,14.21v1.35a13.77,13.77,0,0,0,13.75,13.75h2.34a13.76,13.76,0,0,0,13.74-13.75v-1.35Z"/>
            <path class="cls-7" d="M344.12,307.43h-2.34a14.26,14.26,0,0,1-14.25-14.25v-1.36c0-7.74.56-14.7,6.58-14.7h.3a6.22,6.22,0,0,1,3.58,1.34,11,11,0,0,1,9.91,0,6.25,6.25,0,0,1,3.59-1.34h.3c6,0,6.54,7,6.57,14.7h-.5l.5.05v1.3A14.26,14.26,0,0,1,344.12,307.43Zm-10-29.31c-4.62,0-5.55,5-5.58,13.71l-.5.11h.5v1.24a13.27,13.27,0,0,0,13.25,13.25h2.34a13.26,13.26,0,0,0,13.24-13.25v-1.24l.5-.11h-.5c0-8.68-1-13.71-5.57-13.71h-.27a5.42,5.42,0,0,0-3.27,1.33l-.25.19-.28-.15a10.1,10.1,0,0,0-9.55,0l-.28.15-.25-.19a5.41,5.41,0,0,0-3.26-1.33Z"/>
          </g>
        </g>
        <g>
          <path class="cls-8" d="M164.54,164.15v21A42.26,42.26,0,0,1,144,221.41h0v13.38a21.54,21.54,0,0,1-21.83,21.49h-1.72A21.71,21.71,0,0,1,100,242.35a21.39,21.39,0,0,1-1.36-7.55v-14a0,0,0,0,1,0,0c-.73-.46-1.45-.95-2.15-1.46a0,0,0,0,0,0,0c-.7-.51-1.38-1-2.06-1.59s-1.32-1.13-2-1.72l-.94-.91a42.4,42.4,0,0,1-9.38-14.07c-.21-.51-.41-1-.59-1.56s-.44-1.26-.63-1.9A41.9,41.9,0,0,1,79,185.16V164.45c2.33-.53,4.57-1.09,6.73-1.7l.16-.05c1.39-.38,2.73-.78,4-1.21.68-.2,1.35-.43,2-.66,1.32-.43,2.61-.9,3.86-1.37,36.11-13.59,42.49-37.25,42.49-37.25,23.27,12.13,26,33,26.21,39.78C164.59,163.36,164.54,164.15,164.54,164.15Z"/>
          <path class="cls-9" d="M206.22,289.11v21.74a10.57,10.57,0,0,1-10.57,10.57h-15c-13.2,1-20.25,3.93-25.61,6.57s-9.06,5-15.56,5H103.35c-13,0-14.7-9.53-41.25-11.6H48.69a10.57,10.57,0,0,1-10.57-10.57V289.11a54.31,54.31,0,0,1,54.31-54.32h6.2a21.54,21.54,0,0,0,21.82,21.49h1.72A21.54,21.54,0,0,0,144,234.79h7.91A54.31,54.31,0,0,1,206.22,289.11Z"/>
          <path class="cls-10" d="M100,242.35a21.39,21.39,0,0,1-1.36-7.55H92.44c-.86,0-1.73,0-2.59.06s-1.71.1-2.56.18l-1.27.13c-.42.05-.84.1-1.26.17-.83.11-1.64.24-2.45.4h-.08a54.08,54.08,0,0,0-18.06,7c-.49.3-1,.6-1.45.91s-.79.53-1.19.81c-.18.13-.38.25-.56.4s-.38.26-.58.41-.6.44-.89.67c-1.13.85-2.21,1.75-3.27,2.7l-.25.23-.23.21-.24.22-.57.53-.51.5c-.13.12-.26.25-.37.37l-.38.37-.12.13-.11.12c-.75.76-1.46,1.54-2.16,2.35-.08.1-.16.18-.23.28s-.28.34-.44.51h0l-.42.51h0a2.25,2.25,0,0,0-.24.3c-.26.32-.52.64-.76,1-.09.11-.18.22-.26.34l-.21.28-.35.47a2.83,2.83,0,0,1-.2.28l-.21.3-.37.54c-.09.13-.18.25-.26.38s-.21.3-.31.46c-.29.45-.59.91-.87,1.37-.06.11-.13.21-.19.31l-.44.74-.18.32a51.24,51.24,0,0,0-2.43,4.72l-.52,1.18-.51,1.23c-.1.26-.2.51-.29.78-.17.45-.34.9-.49,1.36l-.15.43c-.08.22-.15.45-.23.67-.19.61-.38,1.22-.55,1.84-.07.23-.13.46-.19.68-.14.48-.26,1-.37,1.46-.09.34-.17.69-.25,1a.22.22,0,0,1,0,.08l0,.15c0,.18-.09.38-.12.56l0,.15c-.06.27-.11.52-.16.79-.08.45-.15.91-.23,1.37l-.12.8c-.11.77-.21,1.56-.28,2.35,0,.23,0,.45-.07.68-.06.67-.11,1.35-.14,2,0,.18,0,.37,0,.55s0,.53,0,.81c0,.46,0,.92,0,1.39v21.73a10.53,10.53,0,0,0,2.1,6.33c.21.27.42.53.65.78a3.91,3.91,0,0,0,.35.36,11,11,0,0,0,1.57,1.3c.27.18.57.36.86.53a9.9,9.9,0,0,0,.93.44,10.58,10.58,0,0,0,4.11.83H62.09l1,.08,1,.09c-.67-4.89-1.28-10.64-1.6-16.7A124.36,124.36,0,0,1,63.64,278c1.64-9.66,4.72-17.26,9.16-22.58a23.61,23.61,0,0,1,5.74-5.65,35.45,35.45,0,0,1,6.93-3.92,46.44,46.44,0,0,1,13-3.41S99,242.4,100,242.35Z"/>
          <path class="cls-11" d="M164.54,164.15V162c-.24-6.74-2.94-27.65-26.21-39.78,0,0-8.27,30.68-59.3,42.24-.88.2-1.79.4-2.69.58,0,0-18.24-53.69,4.39-67a10,10,0,0,1,9.42.18c3.5,2.23,7,5.88,9.2,7.76a8.65,8.65,0,0,0,6,2.08c3-.15,7-1.58,11.37-3.24,36-13.6,52.22,11.16,52.6,21.66C170,144.81,171.43,160,164.54,164.15Z"/>
          <path class="cls-12" d="M144,221.41h0l-1.2.68c-.41.23-.81.45-1.23.66s-.82.43-1.24.62c-1.27.59-2.56,1.12-3.89,1.6-.44.16-.88.31-1.34.45s-.78.24-1.17.35l-.24.07c-.44.12-.88.24-1.31.34s-.94.23-1.4.32l-.81.16a42.21,42.21,0,0,1-14.73-5.83h0a42.2,42.2,0,0,1-19.6-35.66V159.46a127.31,127.31,0,0,1-16.81,5v20.72a42.19,42.19,0,0,0,19.59,35.66h0v14h0a21.39,21.39,0,0,0,1.36,7.55,113.1,113.1,0,0,0,20.24-3c8.67-2.19,19.15-6.35,23.77-14.09,0,0,0,0,0,0v-3.84Z"/>
        </g>
        <g>
          <path class="cls-13" d="M266.49,154.5v25a50.28,50.28,0,0,1-24.43,43.13h0v15.92a25.64,25.64,0,0,1-26,25.57h-2a25.81,25.81,0,0,1-24.35-16.58,25.33,25.33,0,0,1-1.62-9V221.94h0c-.87-.56-1.73-1.14-2.56-1.74h0c-.84-.61-1.65-1.24-2.45-1.89s-1.57-1.35-2.33-2.06c-.38-.35-.75-.71-1.12-1.08a49.55,49.55,0,0,1-6-7.12,50.28,50.28,0,0,1-5.2-9.61c-.25-.62-.49-1.24-.71-1.86s-.52-1.5-.75-2.26a49.92,49.92,0,0,1-2.22-14.8V154.86c2.78-.63,5.44-1.31,8-2l.19-.05c1.65-.46,3.24-.94,4.8-1.44.82-.25,1.61-.51,2.41-.79,1.57-.52,3.11-1.07,4.6-1.63,43-16.18,50.54-44.32,50.54-44.32C263,119,266.2,143.91,266.49,151.92,266.55,153.56,266.49,154.5,266.49,154.5Z"/>
          <path class="cls-14" d="M242.05,222.63h0l-1.42.82-1.47.79c-.49.25-1,.5-1.48.73-1.5.71-3,1.34-4.62,1.91-.52.19-1.05.36-1.59.53s-.93.29-1.4.42l-.29.08-1.56.41c-.55.13-1.1.26-1.66.37l-1,.19a49.81,49.81,0,0,1-17.53-6.94h0a50.21,50.21,0,0,1-23.31-42.43V148.92a152.22,152.22,0,0,1-20,5.94v24.65a50.23,50.23,0,0,0,23.31,42.43h0v16.61h0a25.33,25.33,0,0,0,1.62,9A134.18,134.18,0,0,0,213.77,244c10.31-2.6,22.79-7.55,28.28-16.76,0,0,0,0,0,0v-4.57Z"/>
          <path class="cls-15" d="M316.09,303.18v25.87a12.58,12.58,0,0,1-12.58,12.57H285.67c-15.7,1.24-24.09,4.68-30.47,7.82s-10.78,6-18.51,6h-43c-15.44,0-17.49-11.35-49.09-13.81H128.65a12.57,12.57,0,0,1-12.57-12.57V303.18a64.61,64.61,0,0,1,64.62-64.63h7.37a25.63,25.63,0,0,0,26,25.57h2a25.64,25.64,0,0,0,26-25.57h9.41A64.62,64.62,0,0,1,316.09,303.18Z"/>
          <path class="cls-16" d="M189.69,247.54a25.33,25.33,0,0,1-1.62-9h-7.36c-1,0-2.06,0-3.09.07s-2,.12-3,.21l-1.51.16c-.5.06-1,.12-1.5.2-1,.14-1.95.29-2.92.47h-.1A64.22,64.22,0,0,0,147.07,248c-.58.36-1.16.71-1.72,1.09s-.95.63-1.42,1c-.22.15-.45.3-.67.47s-.45.32-.68.49-.72.52-1.07.8q-2,1.51-3.88,3.21a2.61,2.61,0,0,0-.3.27l-.28.25c-.1.08-.19.18-.28.26l-.68.63-.61.6-.44.44-.45.45-.14.14-.14.15c-.89.91-1.74,1.84-2.56,2.8l-.28.32-.52.62h0l-.51.61h0c-.1.11-.19.23-.28.35-.31.38-.61.76-.9,1.16a3,3,0,0,0-.31.4l-.25.33c-.13.19-.28.37-.41.57s-.17.22-.24.33-.17.23-.25.35-.31.43-.45.65l-.31.45c-.13.18-.24.36-.36.55-.35.53-.7,1.08-1,1.62-.07.13-.15.25-.23.38l-.51.88-.23.37c-1,1.82-2,3.7-2.89,5.63-.21.46-.41.93-.61,1.4s-.41,1-.6,1.46c-.12.31-.24.61-.35.93-.21.53-.4,1.07-.59,1.62l-.18.51c-.09.26-.18.53-.26.8-.23.72-.46,1.45-.66,2.18-.09.27-.16.55-.23.82-.16.57-.31,1.15-.44,1.73-.11.41-.2.82-.29,1.23a.36.36,0,0,1,0,.1.57.57,0,0,0,0,.18c-.06.22-.11.45-.15.67l0,.18c-.07.31-.13.62-.19.94-.09.53-.19,1.08-.27,1.62,0,.32-.11.63-.15,1-.13.92-.25,1.85-.34,2.79,0,.28,0,.54-.08.81-.06.8-.12,1.61-.16,2.41l0,.67c0,.31,0,.63,0,.95,0,.55,0,1.1,0,1.66v25.86a12.6,12.6,0,0,0,2.49,7.53c.25.32.51.62.77.92a5.68,5.68,0,0,0,.42.44,13.12,13.12,0,0,0,1.86,1.54c.34.22.69.43,1,.63s.72.36,1.09.53a12.72,12.72,0,0,0,4.9,1h16l1.18.1,1.16.11c-.79-5.83-1.53-12.66-1.91-19.88a147.79,147.79,0,0,1,1.41-32c1.95-11.5,5.61-20.54,10.9-26.87a27.85,27.85,0,0,1,6.83-6.72,41.26,41.26,0,0,1,8.24-4.67,55.11,55.11,0,0,1,15.47-4S188.56,247.6,189.69,247.54Z"/>
          <path class="cls-17" d="M266.49,154.5v-2.58c-.29-8-3.5-32.89-31.19-47.32,0,0-9.83,36.5-70.55,50.26l-3.21.69s-21.69-63.89,5.24-79.68a11.86,11.86,0,0,1,11.2.22c4.16,2.65,8.33,7,11,9.23a10.28,10.28,0,0,0,7.17,2.47c3.6-.18,8.3-1.87,13.53-3.85,42.84-16.18,62.14,13.28,62.59,25.77C273,131.48,274.69,149.58,266.49,154.5Z"/>
          <g>
            <path class="cls-7" d="M242.87,307.56h0c0-8.31.85-15.05,1.9-15.05h.2c.45,0,1.95,1.1,4.93,4.17q8-7.81,16,0c3-3.07,4.49-4.16,4.94-4.17h.2c1,0,1.89,6.74,1.89,15.05h0v.93a13.3,13.3,0,0,1-13.29,13.3h-3.48a13.3,13.3,0,0,1-13.29-13.3v-1.84"/>
            <path class="cls-7" d="M259.64,325.29h-3.48a16.82,16.82,0,0,1-16.79-16.8v-1.84a.86.86,0,0,1,0-.16,90.59,90.59,0,0,1,.57-10c.36-2.8,1-7.47,4.82-7.47h.31c1.07,0,2.18.31,5,2.95,5.11-3.63,10.5-3.63,15.61,0,2.83-2.64,3.94-2.92,5-2.95H271c3.87,0,4.46,4.67,4.81,7.47a89.81,89.81,0,0,1,.58,10v2A16.82,16.82,0,0,1,259.64,325.29Zm-13.27-18.22v1.42a9.81,9.81,0,0,0,9.79,9.8h3.48a9.81,9.81,0,0,0,9.79-9.8v-.93a88.48,88.48,0,0,0-.4-9.07c-.19.19-.4.4-.61.63a3.49,3.49,0,0,1-2.47,1.06,3.39,3.39,0,0,1-2.49-1c-4-3.9-7.11-3.91-11.11,0a3.5,3.5,0,0,1-5-.06c-.22-.23-.42-.44-.62-.63C246.56,300.57,246.39,303.44,246.37,307.07Z"/>
          </g>
        </g>
        <path class="cls-18" d="M337.52,231.07h-4.41v-8a45.78,45.78,0,0,0,20.56-38.18V165.53c6.14-5.65,5.63-18.33,5-34.07-.08-1.77-.15-3.58-.21-5.42-.24-6.42-4.94-16.29-14.7-22.78-7.95-5.29-21.82-9.93-42.71-2-4.18,1.58-7.83,2.9-10.3,3a5.14,5.14,0,0,1-3.61-1.26c-.6-.51-1.31-1.17-2.09-1.89a56.17,56.17,0,0,0-7.51-6.16,13.22,13.22,0,0,0-8.4-1.72A42.2,42.2,0,0,0,258.54,83c-9.32-6.19-25.58-11.63-50.15-2.35-5,1.9-9.44,3.49-12.46,3.63a6.73,6.73,0,0,1-4.73-1.64c-.7-.6-1.57-1.4-2.5-2.26a67,67,0,0,0-8.83-7.25A15.36,15.36,0,0,0,165,72.88c-9,5.31-13.21,15.17-14.62,26.32-7.79-2.69-19.22-3.75-34.5,2-4.17,1.58-7.82,2.9-10.3,3A5.17,5.17,0,0,1,102,103c-.6-.51-1.32-1.17-2.1-1.9a55.9,55.9,0,0,0-7.49-6.15,13.31,13.31,0,0,0-13.08-.24c-24.83,14.56-6.73,68.87-6,71.18a3.48,3.48,0,0,0,2.51,2.26v16.76a45.74,45.74,0,0,0,19.62,37.55v8.63h-2.7a57.93,57.93,0,0,0-57.86,57.87V310.7A14.09,14.09,0,0,0,49,324.78H62.29c14.32,1.13,21,4.54,26.41,7.27,4.41,2.24,8.57,4.35,15,4.35h10.65a16.1,16.1,0,0,0,14.28,8.73h15.82c17.17,1.35,25.21,5.43,31.67,8.7,5.39,2.74,10,5.1,17.54,5.1h43.07c7.48,0,12.14-2.37,17.53-5.1,6.45-3.27,14.48-7.34,31.56-8.69H303.5a16.09,16.09,0,0,0,14.28-8.73h7.47c6.37,0,10.51-2.13,14.9-4.35,5.39-2.73,12.09-6.13,26.37-7.26h14.79a14.09,14.09,0,0,0,14.08-14.08V288.94A57.94,57.94,0,0,0,337.52,231.07Zm-11.42,3.47a18.43,18.43,0,0,1-18.34,18H306a18.37,18.37,0,0,1-18.35-18.35v-7.84a45.26,45.26,0,0,0,19.16,4.28h1a45.51,45.51,0,0,0,18.21-3.79ZM270,156.28c7.36-6.39,6.74-21.46,6-40.2-.08-2.12-.17-4.28-.25-6.48a25.52,25.52,0,0,0-2.27-8.94l.32.17a51.31,51.31,0,0,1,6.53,5.4c.86.8,1.64,1.52,2.3,2.08a12.16,12.16,0,0,0,8.48,2.93c3.51-.18,7.54-1.62,12.44-3.48,18.12-6.84,29.78-3.05,36.36,1.33,8.18,5.43,11.44,13.44,11.58,17.21.07,1.85.14,3.66.21,5.44.28,6.77.55,13.35.21,18.59-2.73-9.83-9.55-22.79-26.37-31.56a3.49,3.49,0,0,0-3-.1,3.56,3.56,0,0,0-2,2.27c-.31,1.11-7.88,26.46-50.52,38.23Zm0,10.13c38.25-10,51.61-30.65,55.69-39.5,22.06,13.62,21,35.75,20.95,36.72a4.05,4.05,0,0,0,0,.7v20.56a38.83,38.83,0,0,1-38.78,38.78h-1a39,39,0,0,1-38.23-32.29A53.49,53.49,0,0,0,270,179.51Zm-31.45,72.28a22.49,22.49,0,0,1-22.46,21.93H214a22.5,22.5,0,0,1-22.46-21.93V227.88A53.59,53.59,0,0,0,215,233.26h1.22a53.77,53.77,0,0,0,22.32-4.84v10.27Zm-22.31-12.43H215a46.8,46.8,0,0,1-46.76-46.75V157.63c48.47-11.78,64.41-37.8,68.89-48,22.84,13.72,25.6,35,25.86,42.17,0,0,0,.07,0,.11v27.57a46.73,46.73,0,0,1-46.76,46.75Zm-63.9,4.81h-4.42v-8a46,46,0,0,0,17.72-22.38,54,54,0,0,0,18.93,23.09v11.27H180.7c-2.18,0-4.34.11-6.47.31A57.6,57.6,0,0,0,152.33,231.07Zm6.9,7.47a67.51,67.51,0,0,0-13.71,6.33,25.32,25.32,0,0,0,2.08-6.8h4.73A52.61,52.61,0,0,1,159.23,238.54Zm86.32-14a53.92,53.92,0,0,0,19.13-21.91,46.26,46.26,0,0,0,16,19.68v8.73H278a57.75,57.75,0,0,0-21.63,4.18c-1.62-.11-3.25-.19-4.91-.19h-5.9ZM278,238.07h3a25,25,0,0,0,1,4.26,66.62,66.62,0,0,0-9.59-4A51.37,51.37,0,0,1,278,238.07ZM168.55,78.92a7.41,7.41,0,0,1,3.61-.82,7.62,7.62,0,0,1,3.94,1,61.58,61.58,0,0,1,7.85,6.5c1,.9,1.9,1.76,2.71,2.45a13.78,13.78,0,0,0,9.61,3.31c4-.2,8.81-1.89,14.6-4.08,21.78-8.23,35.84-3.66,43.79,1.63,9.93,6.6,13.89,16.37,14,21q.12,3.31.26,6.5c.4,9.76.79,19.19-.15,25.92-2.48-11.79-9.93-29.31-31.9-40.77a3.51,3.51,0,0,0-5,2.18c-.1.36-10.29,34.66-67.86,47.74l-.08,0-.08,0c-1.24-4-2.59-9-3.78-14.62a2.78,2.78,0,0,0-.16-.76C155.65,115.31,153.76,87.59,168.55,78.92Zm-85.69,21.8a6.55,6.55,0,0,1,5.76.11,51,51,0,0,1,6.5,5.38c.87.81,1.66,1.53,2.33,2.1a12.14,12.14,0,0,0,8.47,2.93c3.52-.18,7.55-1.62,12.45-3.48,11.94-4.5,22.76-4.93,31.48-1.27A117.55,117.55,0,0,0,151.08,126a56.69,56.69,0,0,0-10.72-7.19,3.49,3.49,0,0,0-3-.1,3.54,3.54,0,0,0-2,2.27c-.33,1.18-8.56,28.74-56.32,39.71C74.15,144.61,67.33,109.83,82.86,100.72Zm0,84.17v-18c39.77-9.8,53.51-31,57.66-40a45.13,45.13,0,0,1,12.84,11.76,178.59,178.59,0,0,0,4.87,18,3.49,3.49,0,0,0,3,2.35v20.47c0,1.57.09,3.11.22,4.64v.74a38.83,38.83,0,0,1-38.78,38.78h-1A38.83,38.83,0,0,1,82.87,184.89Zm58,42v7.63a18.42,18.42,0,0,1-18.34,18.06h-1.72a18.41,18.41,0,0,1-18.34-18.06,1.28,1.28,0,0,1,0-.19v-7.87a45.52,45.52,0,0,0,19.17,4.21h1A45.5,45.5,0,0,0,140.9,226.89Zm-28.32,76.29v25.87c0,.12,0,.23,0,.35h-8.87c-4.77,0-7.74-1.5-11.85-3.59-6-3-13.38-6.79-29.17-8H49a7.08,7.08,0,0,1-7.08-7.08V288.94a50.92,50.92,0,0,1,50.86-50.87h3a25.46,25.46,0,0,0,25,21.51h1.72a25,25,0,0,0,6.62-.9A67.83,67.83,0,0,0,112.58,303.18ZM303.5,338.13H285.55l-.31,0c-18.43,1.47-27.13,5.88-34.13,9.43-4.94,2.5-8.52,4.32-14.29,4.34a4.35,4.35,0,0,0-.51,0H193.68c-5.82,0-9.41-1.82-14.37-4.34-7-3.57-15.79-8-34.43-9.45H128.65a9.09,9.09,0,0,1-9.07-9.08V303.18a61.19,61.19,0,0,1,61.12-61.12h4.12A29.52,29.52,0,0,0,214,267.62h2.05a29.52,29.52,0,0,0,29.21-25.56h6.16a61.19,61.19,0,0,1,61.13,61.12v25.87A9.09,9.09,0,0,1,303.5,338.13Zm84.89-27.43a7.09,7.09,0,0,1-7.08,7.08h-15a2.63,2.63,0,0,0-.49,0c-15.56,1.24-22.92,5-28.84,8-4.12,2.09-7.1,3.6-11.88,3.6h-5.54c0-.12,0-.23,0-.35V303.18a67.8,67.8,0,0,0-15.93-43.71c.79.07,1.58.11,2.39.11h1.72a25.47,25.47,0,0,0,25-21.51h4.72a50.93,50.93,0,0,1,50.87,50.87Z"/>
      </g>
    </g>
  </g>
</svg>
