<?xml version="1.0" encoding="UTF-8"?><svg xmlns="http://www.w3.org/2000/svg" viewBox="0 0 37.79 17.64" fill="#fff"><g id="a"/><g id="b"><g id="c"><g><g><path d="M1.29,3.14s.08,.02,.11,.05,.04,.08,.03,.12l-.15,.71h.86s.08,.02,.11,.05,.04,.08,.03,.12l-.06,.25c-.01,.06-.07,.11-.14,.11h-.92l-.32,1.55c-.02,.08-.04,.2-.04,.26,0,.23,.16,.35,.48,.35h.29s.08,.02,.11,.05,.04,.08,.03,.12l-.05,.25c-.01,.06-.07,.11-.14,.11h-.36c-.69,0-.99-.29-.99-.74,0-.08,.01-.18,.04-.28l.35-1.67H.14s-.08-.02-.11-.05-.04-.08-.03-.12l.05-.25c.01-.06,.07-.11,.14-.11h.48l.17-.77c.01-.06,.07-.11,.14-.11h.32Z"/><path d="M6.02,5.09c0,.13-.02,.27-.05,.41l-.35,1.63c-.01,.06-.07,.11-.14,.11h-.32s-.08-.02-.11-.05-.04-.08-.03-.12l.34-1.59c.02-.1,.03-.2,.03-.29,0-.41-.22-.7-.76-.7-.5,0-1.03,.34-1.16,.97l-.36,1.68c-.01,.06-.07,.11-.14,.11h-.32s-.08-.02-.11-.05-.04-.08-.03-.12l.94-4.41c.01-.06,.07-.11,.14-.11h.32s.08,.02,.11,.05,.04,.08,.03,.12l-.34,1.62c.23-.22,.62-.41,1.04-.41,.67,0,1.25,.4,1.25,1.16Z"/><path d="M7.39,5.85c0,.56,.36,.92,.95,.92,.34,0,.63-.11,.84-.38,.03-.03,.07-.05,.11-.05h.35c.05,0,.1,.03,.12,.07s.02,.1,0,.14c-.33,.51-.85,.78-1.46,.78-.92,0-1.52-.63-1.52-1.48,0-1.1,.84-1.93,1.86-1.93,.88,0,1.46,.6,1.46,1.4,0,.13,0,.26-.05,.42-.02,.06-.07,.11-.14,.11h-2.51Zm.09-.53h1.98s.01-.07,.01-.1c0-.45-.33-.77-.88-.77-.51,0-.98,.36-1.11,.87Z"/></g><path d="M12.14,6.44c.11,0,.21,.06,.26,.15,.24,.39,.78,.61,1.46,.61s1.28-.24,1.28-.7c0-.34-.34-.47-.92-.55l-1.09-.16c-1.06-.16-1.56-.7-1.56-1.43,0-1.19,1.07-1.98,2.66-1.98,1.29,0,2.15,.58,2.52,1.33,.05,.1,.04,.21-.01,.3s-.16,.15-.26,.15h-.74c-.11,0-.2-.05-.26-.14-.22-.35-.68-.53-1.37-.53s-1.27,.26-1.27,.73c0,.32,.34,.44,.92,.53l1.03,.12c1.06,.13,1.62,.68,1.62,1.46,0,1.16-1.01,1.97-2.72,1.97-1.37,0-2.25-.6-2.6-1.43-.04-.1-.03-.2,.03-.29s.15-.14,.26-.14h.75Z"/><path d="M19.69,.12c.08,0,.16,.04,.21,.1s.07,.15,.05,.23l-.94,4.35,2.8-2.2s.11-.06,.17-.06h.96c.12,0,.22,.07,.26,.18s0,.23-.09,.3l-3.06,2.44,2.06,2.22c.07,.08,.09,.19,.05,.29s-.14,.16-.25,.16h-.92c-.08,0-.15-.03-.2-.09l-2.01-2.14-.42,2.01c-.03,.13-.14,.22-.27,.22h-.71c-.08,0-.16-.04-.21-.1s-.07-.15-.05-.23L18.71,.34c.03-.13,.14-.22,.27-.22h.71Z"/><path d="M28.65,.08c.09,0,.18,.04,.24,.11s.08,.17,.06,.26l-1.57,7.41c-.03,.14-.16,.24-.3,.24h-.64c-.09,0-.18-.04-.24-.11s-.08-.17-.06-.26L27.7,.32c.03-.14,.16-.24,.3-.24h.64Z"/><path d="M32.55,.12c.09,0,.18,.04,.24,.11s.08,.17,.06,.26l-1.57,7.41c-.03,.14-.16,.24-.3,.24h-.64c-.09,0-.18-.04-.24-.11s-.08-.17-.06-.26L31.61,.36c.03-.14,.16-.24,.3-.24h.64Z"/><path d="M20.51,11.41c-.09,0-.18-.05-.23-.12-.26-.39-.72-.6-1.25-.6-1.06,0-1.96,.86-1.96,2.05,0,.83,.6,1.51,1.46,1.51,.59,0,1.03-.25,1.37-.63,.05-.06,.13-.09,.2-.09h.78c.1,0,.19,.05,.24,.14s.04,.2-.01,.28c-.59,.9-1.57,1.47-2.67,1.47-1.58,0-2.65-1.13-2.65-2.57,0-1.93,1.56-3.35,3.33-3.35,1.09,0,2.01,.59,2.4,1.52,.04,.08,.03,.18-.02,.26s-.14,.12-.23,.12h-.78Z"/><g><path d="M25.96,.41c.02-.1,0-.2-.07-.28s-.16-.13-.26-.13h-.43c-.34,0-.63,.24-.7,.57l-.1,.47c-.02,.1,0,.2,.07,.28s.16,.13,.26,.13h.43c.34,0,.63-.24,.7-.57l.1-.47Z"/><path d="M29.32,17.64c.1,0,.19-.07,.22-.17l.27-.95s0-.09-.02-.12-.07-.06-.11-.06h-5.7c-.56,0-.98-.51-.88-1.06l2.29-12.51c.01-.06,0-.12-.04-.16s-.09-.07-.15-.07h-.86c-.09,0-.17,.07-.19,.16l-2.44,13.18c-.17,.91,.53,1.76,1.46,1.76h6.16Z"/></g><path d="M24.85,13.57c0-.2,.04-.48,.08-.71l.59-2.83c.03-.13,.14-.22,.27-.22h.71c.08,0,.16,.04,.21,.1s.07,.15,.06,.23l-.57,2.71c-.04,.13-.05,.31-.05,.44,0,.66,.35,1.1,1.2,1.1,.76,0,1.56-.54,1.75-1.52l.6-2.84c.03-.13,.14-.22,.27-.22h.71c.08,0,.16,.04,.21,.1s.07,.15,.05,.23l-1.07,5.06c-.03,.13-.14,.22-.27,.22h-.71c-.08,0-.16-.04-.21-.1s-.07-.15-.06-.23l.03-.17c-.37,.37-.98,.65-1.69,.65-1.12,0-2.13-.65-2.13-2Z"/><path d="M31.58,15.41c-.09,0-.18-.04-.24-.11s-.08-.17-.06-.26l1.57-7.41c.03-.14,.16-.24,.3-.24h.64c.09,0,.18,.04,.24,.11s.08,.17,.06,.26l-.53,2.49c.38-.37,1.03-.6,1.67-.6,1.69,0,2.57,1.22,2.57,2.53,0,1.82-1.35,3.38-3.24,3.38-.85,0-1.58-.3-1.95-.79l-.08,.39c-.03,.14-.16,.25-.3,.25h-.64Zm3.41-4.58c-.96,0-1.97,.79-1.97,2.07,0,.98,.72,1.49,1.52,1.49,.96,0,1.98-.79,1.98-2.07,0-.98-.73-1.49-1.54-1.49Z"/></g></g></g></svg>